<svg width="594" height="84" viewBox="0 0 594 84" fill="none" xmlns="http://www.w3.org/2000/svg">
<path d="M82.916 55C82.5293 55 82.2007 54.8647 81.93 54.594C81.6593 54.3233 81.524 53.9947 81.524 53.608V15.85C81.524 15.4247 81.6593 15.0767 81.93 14.806C82.2007 14.5353 82.5293 14.4 82.916 14.4H97.938C102.617 14.4 106.309 15.4827 109.016 17.648C111.723 19.8133 113.076 22.9647 113.076 27.102C113.076 29.9633 112.361 32.3413 110.93 34.236C109.538 36.1307 107.663 37.5033 105.304 38.354L113.772 53.144C113.888 53.376 113.946 53.5887 113.946 53.782C113.946 54.13 113.811 54.42 113.54 54.652C113.308 54.884 113.037 55 112.728 55H107.45C106.793 55 106.29 54.826 105.942 54.478C105.594 54.13 105.323 53.782 105.13 53.434L97.648 39.688H89.586V53.608C89.586 53.9947 89.4507 54.3233 89.18 54.594C88.948 54.8647 88.6193 55 88.194 55H82.916ZM89.586 33.134H97.764C100.123 33.134 101.882 32.612 103.042 31.568C104.202 30.4853 104.782 28.9773 104.782 27.044C104.782 25.1107 104.202 23.6027 103.042 22.52C101.921 21.3987 100.161 20.838 97.764 20.838H89.586V33.134ZM150.535 55C150.226 55 149.936 54.884 149.665 54.652C149.433 54.42 149.317 54.13 149.317 53.782C149.317 53.6273 149.356 53.4533 149.433 53.26L163.411 15.85C163.527 15.4633 163.74 15.1347 164.049 14.864C164.397 14.5547 164.861 14.4 165.441 14.4H171.763C172.343 14.4 172.788 14.5547 173.097 14.864C173.407 15.1347 173.639 15.4633 173.793 15.85L187.771 53.26C187.81 53.4533 187.829 53.6273 187.829 53.782C187.829 54.13 187.713 54.42 187.481 54.652C187.249 54.884 186.979 55 186.669 55H181.623C181.082 55 180.676 54.884 180.405 54.652C180.173 54.3813 180.019 54.13 179.941 53.898L177.215 46.822H159.989L157.263 53.898C157.186 54.13 157.012 54.3813 156.741 54.652C156.509 54.884 156.123 55 155.581 55H150.535ZM162.019 40.152H175.185L168.573 22.23L162.019 40.152ZM240.591 55.58C236.995 55.58 233.941 54.9613 231.427 53.724C228.953 52.448 227.058 50.65 225.743 48.33C224.429 45.9713 223.694 43.1487 223.539 39.862C223.501 38.2767 223.481 36.5753 223.481 34.758C223.481 32.9407 223.501 31.2007 223.539 29.538C223.694 26.29 224.429 23.4867 225.743 21.128C227.097 18.7693 229.011 16.9713 231.485 15.734C233.999 14.458 237.034 13.82 240.591 13.82C243.221 13.82 245.579 14.168 247.667 14.864C249.755 15.56 251.534 16.5267 253.003 17.764C254.473 18.9627 255.613 20.374 256.425 21.998C257.237 23.622 257.663 25.3813 257.701 27.276C257.74 27.624 257.624 27.914 257.353 28.146C257.121 28.378 256.831 28.494 256.483 28.494H250.973C250.548 28.494 250.2 28.3973 249.929 28.204C249.659 27.972 249.465 27.6047 249.349 27.102C248.731 24.55 247.667 22.81 246.159 21.882C244.651 20.954 242.776 20.49 240.533 20.49C237.943 20.49 235.874 21.2247 234.327 22.694C232.781 24.1247 231.949 26.5027 231.833 29.828C231.717 32.9987 231.717 36.2467 231.833 39.572C231.949 42.8973 232.781 45.2947 234.327 46.764C235.874 48.1947 237.943 48.91 240.533 48.91C242.776 48.91 244.651 48.446 246.159 47.518C247.667 46.5513 248.731 44.8113 249.349 42.298C249.465 41.7567 249.659 41.3893 249.929 41.196C250.2 41.0027 250.548 40.906 250.973 40.906H256.483C256.831 40.906 257.121 41.022 257.353 41.254C257.624 41.486 257.74 41.776 257.701 42.124C257.663 44.0187 257.237 45.778 256.425 47.402C255.613 49.026 254.473 50.4567 253.003 51.694C251.534 52.8927 249.755 53.84 247.667 54.536C245.579 55.232 243.221 55.58 240.591 55.58ZM298.452 55C298.065 55 297.736 54.8647 297.466 54.594C297.195 54.3233 297.06 53.9947 297.06 53.608V15.792C297.06 15.4053 297.195 15.0767 297.466 14.806C297.736 14.5353 298.065 14.4 298.452 14.4H303.846C304.232 14.4 304.561 14.5353 304.832 14.806C305.102 15.0767 305.238 15.4053 305.238 15.792V48.098H323.624C324.049 48.098 324.397 48.2333 324.668 48.504C324.938 48.7747 325.074 49.1227 325.074 49.548V53.608C325.074 53.9947 324.938 54.3233 324.668 54.594C324.397 54.8647 324.049 55 323.624 55H298.452ZM364.576 55C364.19 55 363.861 54.8647 363.59 54.594C363.32 54.3233 363.184 53.9947 363.184 53.608V15.792C363.184 15.4053 363.32 15.0767 363.59 14.806C363.861 14.5353 364.19 14.4 364.576 14.4H370.028C370.454 14.4 370.782 14.5353 371.014 14.806C371.285 15.0767 371.42 15.4053 371.42 15.792V53.608C371.42 53.9947 371.285 54.3233 371.014 54.594C370.782 54.8647 370.454 55 370.028 55H364.576ZM412.126 55C411.74 55 411.411 54.8647 411.14 54.594C410.87 54.3233 410.734 53.9753 410.734 53.55V49.49C410.734 48.91 410.85 48.446 411.082 48.098C411.314 47.75 411.488 47.4987 411.604 47.344L431.788 21.244H412.706C412.281 21.244 411.933 21.1087 411.662 20.838C411.43 20.5673 411.314 20.2387 411.314 19.852V15.85C411.314 15.4247 411.43 15.0767 411.662 14.806C411.933 14.5353 412.281 14.4 412.706 14.4H440.43C440.856 14.4 441.204 14.5353 441.474 14.806C441.745 15.0767 441.88 15.4247 441.88 15.85V19.852C441.88 20.316 441.803 20.7027 441.648 21.012C441.494 21.3213 441.32 21.6113 441.126 21.882L421.348 48.098H441.068C441.494 48.098 441.842 48.2333 442.112 48.504C442.383 48.7747 442.518 49.1227 442.518 49.548V53.608C442.518 53.9947 442.383 54.3233 442.112 54.594C441.842 54.8647 441.494 55 441.068 55H412.126ZM483.118 55C482.732 55 482.403 54.8647 482.132 54.594C481.862 54.3233 481.726 53.9947 481.726 53.608V15.85C481.726 15.4247 481.862 15.0767 482.132 14.806C482.403 14.5353 482.732 14.4 483.118 14.4H508.638C509.064 14.4 509.412 14.5353 509.682 14.806C509.953 15.0767 510.088 15.4247 510.088 15.85V19.678C510.088 20.0647 509.953 20.3933 509.682 20.664C509.412 20.9347 509.064 21.07 508.638 21.07H489.556V31.336H507.362C507.788 31.336 508.136 31.4713 508.406 31.742C508.677 31.974 508.812 32.3027 508.812 32.728V36.324C508.812 36.7493 508.677 37.0973 508.406 37.368C508.136 37.6 507.788 37.716 507.362 37.716H489.556V48.33H509.102C509.528 48.33 509.876 48.4653 510.146 48.736C510.417 49.0067 510.552 49.3547 510.552 49.78V53.608C510.552 53.9947 510.417 54.3233 510.146 54.594C509.876 54.8647 509.528 55 509.102 55H483.118ZM551.678 55C551.292 55 550.963 54.8647 550.692 54.594C550.422 54.3233 550.286 53.9947 550.286 53.608V15.85C550.286 15.4247 550.422 15.0767 550.692 14.806C550.963 14.5353 551.292 14.4 551.678 14.4H566.7C571.379 14.4 575.072 15.4827 577.778 17.648C580.485 19.8133 581.838 22.9647 581.838 27.102C581.838 29.9633 581.123 32.3413 579.692 34.236C578.3 36.1307 576.425 37.5033 574.066 38.354L582.534 53.144C582.65 53.376 582.708 53.5887 582.708 53.782C582.708 54.13 582.573 54.42 582.302 54.652C582.07 54.884 581.8 55 581.49 55H576.212C575.555 55 575.052 54.826 574.704 54.478C574.356 54.13 574.086 53.782 573.892 53.434L566.41 39.688H558.348V53.608C558.348 53.9947 558.213 54.3233 557.942 54.594C557.71 54.8647 557.382 55 556.956 55H551.678ZM558.348 33.134H566.526C568.885 33.134 570.644 32.612 571.804 31.568C572.964 30.4853 573.544 28.9773 573.544 27.044C573.544 25.1107 572.964 23.6027 571.804 22.52C570.683 21.3987 568.924 20.838 566.526 20.838H558.348V33.134Z" fill="white"/>
<path d="M55.4755 66.5682C55.4755 67.0621 55.4435 67.548 55.3816 68.0249C54.6486 73.651 49.7292 78 43.7682 78C37.3024 78 32.0609 72.8829 32.0609 66.5682C32.0609 64.0872 32.8703 61.7898 34.2465 59.9147C34.2785 59.945 34.3105 59.9752 34.3425 60.0055C35.443 61.0367 36.5766 61.9843 37.7246 62.8412C37.0257 63.9199 36.621 65.1982 36.621 66.5682C36.621 70.4221 39.8204 73.5472 43.7682 73.5472C47.0295 73.5472 49.7819 71.4131 50.6388 68.4977C50.8194 67.8847 50.9155 67.2375 50.9155 66.5682C50.9155 65.301 50.5696 64.1104 49.9636 63.0852C48.7288 60.9954 46.4173 59.5891 43.7692 59.5891C42.5944 59.5891 41.4856 59.8663 40.5079 60.3563C39.2247 59.5437 37.9486 58.5649 36.7284 57.4348C38.6878 55.9922 41.1253 55.1364 43.7692 55.1364C47.9236 55.1364 51.5721 57.2493 53.6492 60.4339C54.8065 62.2071 55.4766 64.311 55.4766 66.5692L55.4755 66.5682Z" fill="white"/>
<path d="M49.9623 63.0852C47.3699 63.5076 43.9125 62.5146 40.5066 60.3563C39.2233 59.5438 37.9473 58.5649 36.727 57.4348C36.6919 57.4016 36.6558 57.3683 36.6197 57.335C36.057 56.8078 35.5284 56.2685 35.0329 55.7191C33.9654 56.3158 32.8463 56.834 31.6807 57.2614C32.4736 58.1637 33.3294 59.0508 34.2452 59.9158C34.2772 59.946 34.3092 59.9762 34.3412 60.0065C35.4417 61.0378 36.5753 61.9854 37.7233 62.8423C42.1285 66.1337 46.7546 68.1086 50.6375 68.4987C50.8181 67.8858 50.9141 67.2386 50.9141 66.5692C50.9141 65.302 50.5683 64.1115 49.9623 63.0862V63.0852ZM50.2699 43.7973C48.9929 42.6007 47.6714 41.517 46.3345 40.5553C43.4458 38.4786 40.4808 36.9675 37.7068 36.0975C33.1405 34.664 29.0935 34.9684 26.7645 37.3384C24.1866 39.9615 24.2847 44.5332 26.5363 49.487C27.9486 49.1795 29.2835 48.6684 30.5038 47.987C29.8049 45.4324 30.0702 43.1783 31.4732 41.7509C32.7193 40.4837 34.6684 40.0643 36.9407 40.39C39.4835 40.7549 42.431 42.0533 45.2473 44.1401C46.0567 44.7389 46.8558 45.4042 47.6322 46.1301C52.8055 50.978 55.212 56.958 53.6489 60.4339C54.8062 62.2072 55.4763 64.3111 55.4763 66.5692C55.4763 67.0632 55.4443 67.5491 55.3823 68.0259C56.3332 67.6781 57.1653 67.1609 57.8487 66.4643C62.2467 61.9884 58.8542 51.8409 50.271 43.7973H50.2699Z" fill="#2473FF"/>
<path d="M37.707 36.0975C37.707 36.0199 37.7091 35.9422 37.7091 35.8636C37.7091 28.1547 31.3093 21.9065 23.4146 21.9065C15.5199 21.9065 9.12117 28.1557 9.12117 35.8636C9.12117 43.5715 15.521 49.8207 23.4146 49.8207C24.4873 49.8207 25.532 49.7058 26.5376 49.486C27.9499 49.1785 29.2848 48.6674 30.5051 47.986C33.4959 46.3145 35.8084 43.6199 36.942 40.389C39.4848 40.7539 42.4323 42.0523 45.2486 44.1391C43.2984 49.0455 39.6624 53.1303 35.0352 55.7181C33.9677 56.3148 32.8486 56.833 31.683 57.2604C29.1134 58.2091 26.3259 58.7272 23.4156 58.7272C10.4829 58.7282 0 48.491 0 35.8636C0 23.2362 10.4829 13 23.4136 13C36.3443 13 46.8282 23.2372 46.8282 35.8636C46.8282 37.4715 46.6578 39.0401 46.3347 40.5543C43.4461 38.4776 40.481 36.9665 37.707 36.0965V36.0975Z" fill="white"/>
</svg>
